<?xml version="1.0" encoding="UTF-8"?>
<svg version="1.1" xmlns="http://www.w3.org/2000/svg" width="1800" height="1800">
<path d="M0 0 C1.72850441 0.03329407 1.72850441 0.03329407 3.4919281 0.06726074 C7.09751523 0.13705629 10.70305295 0.20910529 14.30859375 0.28125 C16.78450227 0.32957781 19.26041372 0.37775599 21.73632812 0.42578125 C27.73961811 0.54254773 33.7428695 0.66115366 39.74609375 0.78125 C39.74609375 4.78125 39.74609375 4.78125 37.3671875 7.3671875 C36.3162946 8.30850784 35.25443393 9.23768526 34.18359375 10.15625 C33.63654785 10.63940674 33.08950195 11.12256348 32.52587891 11.62036133 C31.43712716 12.57917775 30.34410031 13.53316442 29.24658203 14.48193359 C27.97275027 15.58498153 26.71501602 16.70657616 25.4609375 17.83203125 C21.02160091 21.78125 21.02160091 21.78125 18.74609375 21.78125 C18.41609375 22.77125 18.08609375 23.76125 17.74609375 24.78125 C17.08609375 24.78125 16.42609375 24.78125 15.74609375 24.78125 C15.74609375 25.44125 15.74609375 26.10125 15.74609375 26.78125 C14.41796875 28.0859375 14.41796875 28.0859375 12.49609375 29.65625 C8.61334915 32.95449541 4.97260958 36.43299445 1.37109375 40.03125 C0.58557129 40.81024658 0.58557129 40.81024658 -0.21582031 41.60498047 C-2.50730835 43.90467904 -4.44652065 46.07017161 -6.25390625 48.78125 C-6.91390625 48.78125 -7.57390625 48.78125 -8.25390625 48.78125 C-8.58390625 49.77125 -8.91390625 50.76125 -9.25390625 51.78125 C-9.91390625 51.78125 -10.57390625 51.78125 -11.25390625 51.78125 C-11.50011719 52.34714844 -11.74632812 52.91304687 -12 53.49609375 C-13.46926849 56.17373258 -15.2314306 58.11168612 -17.31640625 60.34375 C-22.18169192 65.65837734 -26.73801103 71.16884348 -31.25390625 76.78125 C-32.2145563 77.96117159 -33.17550849 79.14084724 -34.13671875 80.3203125 C-45.41431836 94.21414068 -55.43109289 108.83334424 -65.25390625 123.78125 C-65.69718262 124.45317383 -66.14045898 125.12509766 -66.59716797 125.81738281 C-70.86478568 132.29789974 -75.00470444 138.71776781 -78.25390625 145.78125 C-78.91390625 145.78125 -79.57390625 145.78125 -80.25390625 145.78125 C-80.31578125 146.44125 -80.37765625 147.10125 -80.44140625 147.78125 C-81.18017865 150.50902501 -81.8680237 151.91527332 -83.37890625 154.21875 C-86.83483552 159.51652124 -89.52594253 165.18259855 -92.30371094 170.85302734 C-93.25785606 172.78926531 -94.22593218 174.7178508 -95.19921875 176.64453125 C-104.41554093 194.89557321 -113.64320993 213.40082353 -120.25390625 232.78125 C-120.91390625 232.78125 -121.57390625 232.78125 -122.25390625 232.78125 C-122.33640625 233.77125 -122.41890625 234.76125 -122.50390625 235.78125 C-123.01867563 239.3774861 -124.361584 242.14754117 -126.08203125 245.3515625 C-128.11068631 249.55764065 -129.50421587 254.00012892 -131.03515625 258.40625 C-132.00494806 261.09182733 -133.0421358 263.63885163 -134.25390625 266.21875 C-136.04151404 270.0811315 -137.38208996 274.05016927 -138.69140625 278.09375 C-140.52061557 283.73585073 -142.60909262 289.19335153 -144.9453125 294.64453125 C-146.42863015 298.20006581 -147.78923706 301.7949487 -149.12890625 305.40625 C-154.60255325 320.13601548 -160.09771226 334.91364858 -166.75390625 349.15625 C-168.66318976 353.29700862 -170.25307112 357.47572921 -171.75390625 361.78125 C-173.55425104 366.93627454 -175.55787115 371.87695343 -177.87890625 376.81640625 C-179.21818037 379.70421607 -180.48612023 382.61427978 -181.74389648 385.53808594 C-184.84072343 392.73126743 -188.16574124 399.7440991 -191.7734375 406.6953125 C-193.20444798 409.67815756 -194.28164318 412.6225807 -195.25390625 415.78125 C-195.91390625 415.78125 -196.57390625 415.78125 -197.25390625 415.78125 C-197.58390625 417.76125 -197.91390625 419.74125 -198.25390625 421.78125 C-198.91390625 421.78125 -199.57390625 421.78125 -200.25390625 421.78125 C-200.40859375 423.080625 -200.40859375 423.080625 -200.56640625 424.40625 C-201.28789039 427.94808123 -202.52513886 430.62437042 -204.25390625 433.78125 C-204.91390625 433.78125 -205.57390625 433.78125 -206.25390625 433.78125 C-206.58390625 435.76125 -206.91390625 437.74125 -207.25390625 439.78125 C-207.91390625 439.78125 -208.57390625 439.78125 -209.25390625 439.78125 C-209.351875 440.48894531 -209.44984375 441.19664062 -209.55078125 441.92578125 C-210.36644232 445.2382715 -211.72023637 447.56447012 -213.50390625 450.46875 C-215.68676611 454.10537685 -217.78133139 457.7133593 -219.62890625 461.53125 C-225.65925614 473.78399914 -232.7975005 485.4300102 -239.87890625 497.09375 C-240.24012573 497.68903503 -240.60134521 498.28432007 -240.97351074 498.89764404 C-247.17311883 509.10340695 -253.48523223 519.23257571 -260.12890625 529.15625 C-260.55397461 529.79143555 -260.97904297 530.42662109 -261.41699219 531.08105469 C-269.50496458 543.13784625 -277.91893401 554.91255905 -286.59912109 566.54931641 C-287.7258131 568.06897092 -288.8403024 569.59773167 -289.94384766 571.13427734 C-290.4754248 571.86727051 -291.00700195 572.60026367 -291.5546875 573.35546875 C-292.02688721 574.01506592 -292.49908691 574.67466309 -292.9855957 575.35424805 C-293.40413818 575.82515869 -293.82268066 576.29606934 -294.25390625 576.78125 C-294.91390625 576.78125 -295.57390625 576.78125 -296.25390625 576.78125 C-296.58390625 578.10125 -296.91390625 579.42125 -297.25390625 580.78125 C-297.91390625 580.78125 -298.57390625 580.78125 -299.25390625 580.78125 C-299.50140625 581.33296875 -299.74890625 581.8846875 -300.00390625 582.453125 C-301.49625099 585.23261707 -303.29063148 587.5627207 -305.25390625 590.03125 C-305.95515625 590.92328125 -306.65640625 591.8153125 -307.37890625 592.734375 C-307.99765625 593.40984375 -308.61640625 594.0853125 -309.25390625 594.78125 C-309.91390625 594.78125 -310.57390625 594.78125 -311.25390625 594.78125 C-311.68703125 595.6784375 -311.68703125 595.6784375 -312.12890625 596.59375 C-313.25390625 598.78125 -313.25390625 598.78125 -315.25390625 601.78125 C-315.91390625 601.78125 -316.57390625 601.78125 -317.25390625 601.78125 C-317.51276611 602.36156982 -317.77162598 602.94188965 -318.03833008 603.53979492 C-319.34951911 605.95755481 -320.80942457 607.65412489 -322.703125 609.64453125 C-323.72889648 610.72831055 -323.72889648 610.72831055 -324.77539062 611.83398438 C-325.84756836 612.95256836 -325.84756836 612.95256836 -326.94140625 614.09375 C-327.98458008 615.19493164 -327.98458008 615.19493164 -329.04882812 616.31835938 C-340.64347753 628.51926496 -340.64347753 628.51926496 -346.25390625 633.34375 C-346.91648437 633.91351562 -347.5790625 634.48328125 -348.26171875 635.0703125 C-348.91914062 635.63492188 -349.5765625 636.19953125 -350.25390625 636.78125 C-350.91132812 637.36648438 -351.56875 637.95171875 -352.24609375 638.5546875 C-352.86742187 639.10382812 -353.48875 639.65296875 -354.12890625 640.21875 C-354.68320313 640.71246094 -355.2375 641.20617188 -355.80859375 641.71484375 C-357.25390625 642.78125 -357.25390625 642.78125 -359.25390625 642.78125 C-359.58390625 643.77125 -359.91390625 644.76125 -360.25390625 645.78125 C-362.36353154 647.62387125 -364.46697673 649.33863612 -366.69140625 651.03125 C-367.32014648 651.51634033 -367.94888672 652.00143066 -368.59667969 652.5012207 C-383.30732018 663.78125 -383.30732018 663.78125 -386.25390625 663.78125 C-386.25390625 664.44125 -386.25390625 665.10125 -386.25390625 665.78125 C-391.5480239 669.78125 -391.5480239 669.78125 -395.25390625 669.78125 C-395.25390625 670.44125 -395.25390625 671.10125 -395.25390625 671.78125 C-396.7668457 672.92626953 -396.7668457 672.92626953 -398.8671875 674.1640625 C-399.62064453 674.60878906 -400.37410156 675.05351563 -401.15039062 675.51171875 C-401.94767578 675.97191406 -402.74496094 676.43210937 -403.56640625 676.90625 C-404.35208984 677.37417969 -405.13777344 677.84210937 -405.94726562 678.32421875 C-411.86856551 681.78125 -411.86856551 681.78125 -415.25390625 681.78125 C-415.25390625 682.44125 -415.25390625 683.10125 -415.25390625 683.78125 C-417.23390625 684.11125 -419.21390625 684.44125 -421.25390625 684.78125 C-421.25390625 685.44125 -421.25390625 686.10125 -421.25390625 686.78125 C-423.23390625 687.11125 -425.21390625 687.44125 -427.25390625 687.78125 C-427.25390625 688.44125 -427.25390625 689.10125 -427.25390625 689.78125 C-428.08792969 690.09578125 -428.92195313 690.4103125 -429.78125 690.734375 C-437.23089809 693.54925231 -437.23089809 693.54925231 -444.50390625 696.78125 C-454.67961975 701.40147286 -466.0220233 703.88535412 -476.91015625 706.203125 C-479.19825684 706.55320543 -479.19825684 706.55320543 -480.25390625 707.78125 C-482.7337964 708.15601498 -485.20185818 708.48700979 -487.69140625 708.78125 C-492.6204835 709.22486467 -492.6204835 709.22486467 -497.25390625 710.78125 C-506.62614359 712.1371159 -516.17873859 711.93567746 -525.62548828 711.91162109 C-528.11757532 711.90627431 -530.609481 711.91159012 -533.1015625 711.91796875 C-542.53513251 711.92147644 -551.85192404 711.62445126 -561.25390625 710.78125 C-561.25390625 710.12125 -561.25390625 709.46125 -561.25390625 708.78125 C-563.16623047 708.83925781 -563.16623047 708.83925781 -565.1171875 708.8984375 C-570.39159912 708.89637275 -575.29817908 708.00419857 -580.44140625 706.90625 C-581.30443359 706.73222656 -582.16746094 706.55820313 -583.05664062 706.37890625 C-587.57964049 705.44454515 -591.88664964 704.30486434 -596.25390625 702.78125 C-598.24759656 702.41204809 -600.24669702 702.06799418 -602.25390625 701.78125 C-602.25390625 701.12125 -602.25390625 700.46125 -602.25390625 699.78125 C-603.39085937 699.67941406 -604.5278125 699.57757812 -605.69921875 699.47265625 C-610.45426124 698.8722721 -614.66889436 697.42674032 -619.12890625 695.71875 C-619.95261719 695.40856934 -620.77632812 695.09838867 -621.625 694.77880859 C-630.32296755 691.4539939 -638.80928442 687.69885806 -647.25390625 683.78125 C-648.48584717 683.21156494 -648.48584717 683.21156494 -649.74267578 682.63037109 C-652.2703114 681.45791653 -654.79424652 680.27793475 -657.31640625 679.09375 C-658.07759766 678.73748535 -658.83878906 678.3812207 -659.62304688 678.01416016 C-664.95947206 675.482749 -670.12201387 672.70328918 -675.25390625 669.78125 C-675.95016113 669.38550781 -676.64641602 668.98976563 -677.36376953 668.58203125 C-678.99564064 667.65163212 -680.62507535 666.71696137 -682.25390625 665.78125 C-682.25390625 665.12125 -682.25390625 664.46125 -682.25390625 663.78125 C-682.83140625 663.6575 -683.40890625 663.53375 -684.00390625 663.40625 C-686.28002831 662.77399387 -688.16150831 661.86261532 -690.25390625 660.78125 C-689.56349737 652.22017989 -687.43563317 644.7355673 -684.25390625 636.78125 C-683.88519537 635.12205104 -683.54108951 633.4564857 -683.25390625 631.78125 C-682.59390625 631.78125 -681.93390625 631.78125 -681.25390625 631.78125 C-681.13015625 630.564375 -681.00640625 629.3475 -680.87890625 628.09375 C-680.45975047 624.69260026 -679.61846212 621.93678546 -678.25390625 618.78125 C-677.88519537 617.12205104 -677.54108951 615.4564857 -677.25390625 613.78125 C-676.59390625 613.78125 -675.93390625 613.78125 -675.25390625 613.78125 C-675.14820313 612.63527344 -675.0425 611.48929688 -674.93359375 610.30859375 C-674.35845728 605.72263718 -672.99769198 601.65478549 -671.37890625 597.34375 C-670.83669693 595.85696862 -670.29502539 594.369991 -669.75390625 592.8828125 C-669.49480469 592.17801758 -669.23570312 591.47322266 -668.96875 590.74707031 C-667.64922574 587.11837859 -666.45475044 583.45049612 -665.25390625 579.78125 C-664.59390625 579.78125 -663.93390625 579.78125 -663.25390625 579.78125 C-663.19203125 578.87375 -663.13015625 577.96625 -663.06640625 577.03125 C-662.40746839 572.44614069 -660.56080712 568.48245755 -658.7265625 564.2578125 C-657.04249041 560.2821516 -655.51019101 556.26434435 -654.00390625 552.21875 C-653.74585205 551.52789307 -653.48779785 550.83703613 -653.22192383 550.12524414 C-652.19195565 547.35546947 -651.18845638 544.58490038 -650.25390625 541.78125 C-649.59390625 541.78125 -648.93390625 541.78125 -648.25390625 541.78125 C-648.19203125 540.853125 -648.13015625 539.925 -648.06640625 538.96875 C-647.43081115 534.63983204 -645.71080527 531.0617462 -643.84375 527.1328125 C-641.91412353 523.0649513 -640.08004423 518.95887594 -638.25390625 514.84375 C-637.91093506 514.07264893 -637.56796387 513.30154785 -637.21459961 512.50708008 C-634.46442701 506.30393486 -631.81648853 500.06450462 -629.25390625 493.78125 C-628.59390625 493.78125 -627.93390625 493.78125 -627.25390625 493.78125 C-627.16109375 492.94207031 -627.06828125 492.10289062 -626.97265625 491.23828125 C-626.14999314 487.28145055 -624.60944086 484.01720033 -622.75390625 480.46875 C-622.40078369 479.77797363 -622.04766113 479.08719727 -621.68383789 478.37548828 C-618.69542744 472.55591765 -615.62643159 466.77737652 -612.54321289 461.00756836 C-610.16888129 456.55512106 -607.90366649 452.0663835 -605.69140625 447.53125 C-602.80119372 441.6836107 -599.52766801 436.22440701 -596.0546875 430.71484375 C-593.87360581 427.161715 -592.02795178 423.55109674 -590.25390625 419.78125 C-589.59390625 419.78125 -588.93390625 419.78125 -588.25390625 419.78125 C-588.13917969 419.03488281 -588.02445313 418.28851562 -587.90625 417.51953125 C-587.24292601 414.73515931 -586.46958825 413.26821845 -584.81640625 410.96875 C-581.91770346 406.80013932 -579.22703533 402.54051808 -576.56640625 398.21875 C-571.39657216 389.88287067 -565.89263274 381.80535589 -560.25390625 373.78125 C-559.82577637 373.17007324 -559.39764648 372.55889648 -558.95654297 371.92919922 C-546.71114458 354.48221567 -533.58943649 337.5660866 -519.25390625 321.78125 C-517.97934877 320.34705098 -516.70842088 318.90961694 -515.44140625 317.46875 C-514.89871094 316.85386719 -514.35601563 316.23898437 -513.796875 315.60546875 C-512.1896821 313.75918637 -512.1896821 313.75918637 -510.6796875 311.55078125 C-510.20917969 310.96683594 -509.73867187 310.38289063 -509.25390625 309.78125 C-508.59390625 309.78125 -507.93390625 309.78125 -507.25390625 309.78125 C-506.92390625 308.79125 -506.59390625 307.80125 -506.25390625 306.78125 C-505.59390625 306.78125 -504.93390625 306.78125 -504.25390625 306.78125 C-504.00640625 306.1625 -503.75890625 305.54375 -503.50390625 304.90625 C-502.01650256 302.37766373 -500.81712616 302.06285996 -498.25390625 300.78125 C-497.92390625 300.12125 -497.59390625 299.46125 -497.25390625 298.78125 C-495.98967861 296.25279472 -494.72545097 296.01702236 -492.25390625 294.78125 C-491.1622435 292.84794397 -491.1622435 292.84794397 -490.25390625 290.78125 C-488.75390625 289.03125 -488.75390625 289.03125 -487.25390625 287.78125 C-486.59390625 287.78125 -485.93390625 287.78125 -485.25390625 287.78125 C-485.25390625 287.12125 -485.25390625 286.46125 -485.25390625 285.78125 C-483.9609375 284.44140625 -483.9609375 284.44140625 -482.06640625 282.84375 C-481.33035156 282.21855469 -480.59429688 281.59335937 -479.8359375 280.94921875 C-478.98386719 280.23378906 -478.13179687 279.51835938 -477.25390625 278.78125 C-476.30902344 277.97300781 -475.36414062 277.16476562 -474.390625 276.33203125 C-461.76645744 265.54140718 -449.08962007 254.99272791 -435.25390625 245.78125 C-434.3515625 245.15992188 -433.44921875 244.53859375 -432.51953125 243.8984375 C-426.50652253 239.78125 -426.50652253 239.78125 -424.25390625 239.78125 C-424.25390625 239.12125 -424.25390625 238.46125 -424.25390625 237.78125 C-423.58746094 237.42933594 -422.92101563 237.07742188 -422.234375 236.71484375 C-417.18180351 234.0083614 -412.25807076 231.20340978 -407.44140625 228.09375 C-397.65144497 221.78125 -397.65144497 221.78125 -393.25390625 221.78125 C-393.25390625 221.12125 -393.25390625 220.46125 -393.25390625 219.78125 C-391.27390625 218.79125 -389.29390625 217.80125 -387.25390625 216.78125 C-388.45015625 216.905 -389.64640625 217.02875 -390.87890625 217.15625 C-391.55179688 217.22585938 -392.2246875 217.29546875 -392.91796875 217.3671875 C-395.81791607 217.88122498 -398.46791492 218.82833008 -401.25390625 219.78125 C-403.46017442 220.39291515 -405.66863228 220.99672197 -407.87890625 221.59375 C-413.61082428 223.21678784 -419.01480922 225.19718274 -424.47265625 227.57421875 C-426.96244612 228.65475958 -429.46607977 229.63360565 -432.00390625 230.59375 C-462.71688176 242.869159 -490.78423727 262.33600798 -515.75390625 283.78125 C-518.25390625 285.78125 -518.25390625 285.78125 -520.25390625 285.78125 C-520.25390625 286.44125 -520.25390625 287.10125 -520.25390625 287.78125 C-521.67932326 289.02760279 -523.16682217 290.20327549 -524.67773438 291.34448242 C-529.98650098 295.49060021 -534.7363174 299.98918321 -539.47265625 304.76953125 C-540.29721313 305.59454636 -541.12177002 306.41956146 -541.97131348 307.26957703 C-543.69452276 308.99578211 -545.41532703 310.72439118 -547.13378906 312.45532227 C-549.76958202 315.10953532 -552.41345403 317.75549537 -555.05859375 320.40039062 C-556.73875658 322.08546369 -558.41846086 323.77099412 -560.09765625 325.45703125 C-561.281922 326.64296623 -561.281922 326.64296623 -562.4901123 327.8528595 C-563.5826532 328.95497017 -563.5826532 328.95497017 -564.69726562 330.0793457 C-565.33772827 330.72362015 -565.97819092 331.36789459 -566.63806152 332.0316925 C-568.44144338 333.89243746 -568.44144338 333.89243746 -570.25390625 336.78125 C-570.91390625 336.78125 -571.57390625 336.78125 -572.25390625 336.78125 C-572.54265625 337.379375 -572.83140625 337.9775 -573.12890625 338.59375 C-574.25390625 340.78125 -574.25390625 340.78125 -576.25390625 343.78125 C-576.91390625 343.78125 -577.57390625 343.78125 -578.25390625 343.78125 C-578.62515625 344.63396484 -578.62515625 344.63396484 -579.00390625 345.50390625 C-580.45486218 348.14736659 -582.18333555 350.02616353 -584.25390625 352.21875 C-589.1168856 357.53014398 -593.47129172 363.15697337 -597.81152344 368.89306641 C-599.37191329 370.93572976 -600.95461936 372.95947538 -602.54296875 374.98046875 C-608.69596884 382.81249909 -614.73532108 390.7056243 -620.56640625 398.78125 C-621.12368408 399.55299561 -621.68096191 400.32474121 -622.25512695 401.11987305 C-624.96283089 404.8228529 -624.96283089 404.8228529 -627.25390625 408.78125 C-627.91390625 408.78125 -628.57390625 408.78125 -629.25390625 408.78125 C-629.51945313 409.51214844 -629.785 410.24304688 -630.05859375 410.99609375 C-631.24864561 413.76899238 -632.60752549 415.90913132 -634.37890625 418.34375 C-637.7620765 423.07178296 -641.009299 427.87399599 -644.22265625 432.71875 C-646.20286291 435.70429235 -648.19686729 438.68027123 -650.19140625 441.65625 C-659.5756755 455.76874722 -668.39991225 470.18549737 -677.16444397 484.68661499 C-679.29967202 488.21580097 -681.45124161 491.73419377 -683.62109375 495.2421875 C-687.76124973 501.93670577 -691.82737084 508.54278649 -695.19921875 515.66796875 C-696.6697549 518.61448747 -698.42642435 521.34338977 -700.23828125 524.08984375 C-701.42124161 525.92115288 -701.42124161 525.92115288 -702.25390625 528.78125 C-702.91390625 528.78125 -703.57390625 528.78125 -704.25390625 528.78125 C-704.37765625 529.79832031 -704.37765625 529.79832031 -704.50390625 530.8359375 C-705.45839984 534.58431337 -707.27779493 537.62424693 -709.25390625 540.90625 C-712.11759285 545.66535997 -712.11759285 545.66535997 -714.25390625 550.78125 C-714.91390625 550.78125 -715.57390625 550.78125 -716.25390625 550.78125 C-716.35574219 551.49796875 -716.45757813 552.2146875 -716.5625 552.953125 C-717.34089142 556.13705375 -718.57686565 558.25749505 -720.31640625 561.03125 C-723.26505918 565.93564211 -725.8039428 570.89498523 -728.19140625 576.09375 C-730.68007813 581.50354169 -733.2721035 586.80631755 -736.12890625 592.03125 C-739.9729031 599.06302196 -743.39438927 606.27519076 -746.75341797 613.54980469 C-748.93855859 618.23212225 -751.09706835 622.6733135 -754.25390625 626.78125 C-754.91390625 626.78125 -755.57390625 626.78125 -756.25390625 626.78125 C-758.69384732 620.68139733 -760.51162513 614.49676997 -762.28125 608.171875 C-763.06258718 605.44817754 -763.89624057 602.77234747 -764.81640625 600.09375 C-766.24535366 595.93116408 -767.39176836 591.7131318 -768.5078125 587.45703125 C-769.0062432 585.66946565 -769.55775896 583.89588607 -770.16015625 582.140625 C-771.70831153 577.38557665 -772.93934402 572.55898681 -774.19140625 567.71875 C-774.45864502 566.68886963 -774.72588379 565.65898926 -775.0012207 564.59790039 C-776.8720104 557.34951855 -778.65753455 550.09553487 -780.25390625 542.78125 C-780.61935547 541.13382813 -780.61935547 541.13382813 -780.9921875 539.453125 C-781.76889789 535.90017288 -782.51892791 532.34306811 -783.25390625 528.78125 C-783.3936084 528.10562012 -783.53331055 527.42999023 -783.67724609 526.73388672 C-784.10827382 524.62647769 -784.52663101 522.5169128 -784.94140625 520.40625 C-785.19277344 519.14039063 -785.44414063 517.87453125 -785.703125 516.5703125 C-786.28899529 512.53985734 -786.34852754 508.8454595 -786.25390625 504.78125 C-786.91390625 504.45125 -787.57390625 504.12125 -788.25390625 503.78125 C-788.64868164 501.97119141 -788.64868164 501.97119141 -788.8515625 499.6328125 C-788.97047852 498.37210938 -788.97047852 498.37210938 -789.09179688 497.0859375 C-789.16591797 496.20164062 -789.24003906 495.31734375 -789.31640625 494.40625 C-789.47097019 492.66900239 -789.62840496 490.93200719 -789.7890625 489.1953125 C-789.85488525 488.4213916 -789.92070801 487.6474707 -789.98852539 486.85009766 C-790.21103226 484.58828084 -790.21103226 484.58828084 -791.25390625 481.78125 C-791.45966017 479.765326 -791.61999519 477.74462363 -791.75390625 475.72265625 C-791.83640625 474.53220703 -791.91890625 473.34175781 -792.00390625 472.11523438 C-792.08640625 470.87064453 -792.16890625 469.62605469 -792.25390625 468.34375 C-792.4172975 465.88649876 -792.58383048 463.42945388 -792.75390625 460.97265625 C-792.82609375 459.88154541 -792.89828125 458.79043457 -792.97265625 457.66625977 C-793.15155412 454.93750876 -793.15155412 454.93750876 -793.76339722 452.99353027 C-794.39950113 450.12459201 -794.38121111 447.43893714 -794.38330078 444.49975586 C-794.38802902 442.59274147 -794.38802902 442.59274147 -794.39285278 440.64720154 C-794.39106303 439.26349859 -794.38901208 437.87979596 -794.38671875 436.49609375 C-794.38739259 435.0741016 -794.38836328 433.65210956 -794.38961792 432.2301178 C-794.39109066 429.25357972 -794.38895363 426.27707169 -794.38427734 423.30053711 C-794.37857511 419.48502942 -794.38186486 415.669592 -794.38784981 411.85408688 C-794.39146243 408.91931122 -794.39031369 405.98455224 -794.38772202 403.04977608 C-794.38705496 401.6427567 -794.38787346 400.2357358 -794.39020157 398.82871819 C-794.39274008 396.86359562 -794.38818519 394.89846774 -794.38330078 392.93334961 C-794.38250519 391.81512314 -794.38170959 390.69689667 -794.38088989 389.54478455 C-794.25390625 386.78125 -794.25390625 386.78125 -793.25390625 383.78125 C-793.05005527 381.9490685 -792.88886709 380.11197764 -792.75390625 378.2734375 C-792.67140625 377.20480469 -792.58890625 376.13617187 -792.50390625 375.03515625 C-792.33666469 372.77478205 -792.17000195 370.51436494 -792.00390625 368.25390625 C-791.92140625 367.18785156 -791.83890625 366.12179687 -791.75390625 365.0234375 C-791.68171875 364.0422998 -791.60953125 363.06116211 -791.53515625 362.05029297 C-791.25390625 359.78125 -791.25390625 359.78125 -790.25390625 358.78125 C-789.80321056 355.56578246 -789.4377524 352.35096232 -789.09179688 349.12304688 C-788.61015659 344.92142067 -787.86822144 340.92501614 -786.78686523 336.8371582 C-786.22212857 334.65866647 -785.73064276 332.47280382 -785.25390625 330.2734375 C-785.08890625 329.51417969 -784.92390625 328.75492188 -784.75390625 327.97265625 C-784.41896147 326.42091988 -784.08564321 324.86883157 -783.75390625 323.31640625 C-782.81913219 319.02959081 -781.70513974 314.92926383 -780.25390625 310.78125 C-779.62502866 308.69908388 -779.00013705 306.61571038 -778.37890625 304.53125 C-776.89775023 299.69973 -775.24930039 295.02308864 -773.30859375 290.359375 C-772.11475606 287.44110509 -771.03438086 284.4887107 -769.94140625 281.53125 C-767.43560225 274.99935238 -764.39451304 268.83161638 -761.18652344 262.62011719 C-760.2443239 260.76235621 -759.34232798 258.8896178 -758.44921875 257.0078125 C-747.8410918 234.81982179 -733.49938418 214.20131947 -717.25390625 195.78125 C-716.54878906 194.976875 -715.84367188 194.1725 -715.1171875 193.34375 C-713.97989044 192.04670681 -712.83888471 190.75288833 -711.69140625 189.46484375 C-710.17325867 187.73918312 -710.17325867 187.73918312 -708.69140625 185.56640625 C-708.21703125 184.97730469 -707.74265625 184.38820313 -707.25390625 183.78125 C-706.59390625 183.78125 -705.93390625 183.78125 -705.25390625 183.78125 C-704.92390625 182.79125 -704.59390625 181.80125 -704.25390625 180.78125 C-703.59390625 180.78125 -702.93390625 180.78125 -702.25390625 180.78125 C-702.00640625 180.1625 -701.75890625 179.54375 -701.50390625 178.90625 C-700.01650256 176.37766373 -698.81712616 176.06285996 -696.25390625 174.78125 C-695.96257812 174.17539062 -695.67125 173.56953125 -695.37109375 172.9453125 C-694.05607187 170.39803235 -692.5499479 169.01597247 -690.37890625 167.15625 C-689.70085937 166.56585937 -689.0228125 165.97546875 -688.32421875 165.3671875 C-686.36724156 163.86806913 -684.49342088 162.79555932 -682.25390625 161.78125 C-682.25390625 161.12125 -682.25390625 160.46125 -682.25390625 159.78125 C-680.6639651 158.32207037 -679.00403053 156.93875645 -677.31640625 155.59375 C-676.3109375 154.789375 -675.30546875 153.985 -674.26953125 153.15625 C-673.274375 152.3725 -672.27921875 151.58875 -671.25390625 150.78125 C-670.444375 150.141875 -669.63484375 149.5025 -668.80078125 148.84375 C-666.62869812 147.14253803 -664.44370913 145.45956608 -662.25390625 143.78125 C-661.50625 143.19859375 -660.75859375 142.6159375 -659.98828125 142.015625 C-659.2715625 141.46390625 -658.55484375 140.9121875 -657.81640625 140.34375 C-657.17832031 139.85003906 -656.54023437 139.35632813 -655.8828125 138.84765625 C-654.25390625 137.78125 -654.25390625 137.78125 -652.25390625 137.78125 C-652.25390625 137.12125 -652.25390625 136.46125 -652.25390625 135.78125 C-650.33984375 134.37109375 -650.33984375 134.37109375 -647.62890625 132.71875 C-644.22169559 130.61859674 -640.82399277 128.51436907 -637.4765625 126.3203125 C-636.84766113 125.90918213 -636.21875977 125.49805176 -635.57080078 125.07446289 C-634.32906963 124.26132094 -633.08912124 123.44544928 -631.85107422 122.62670898 C-627.47677654 119.78125 -627.47677654 119.78125 -625.25390625 119.78125 C-625.25390625 119.12125 -625.25390625 118.46125 -625.25390625 117.78125 C-623.96477138 117.10970067 -622.67250421 116.44416141 -621.37890625 115.78125 C-620.65960937 115.41 -619.9403125 115.03875 -619.19921875 114.65625 C-617.25390625 113.78125 -617.25390625 113.78125 -615.25390625 113.78125 C-615.25390625 113.12125 -615.25390625 112.46125 -615.25390625 111.78125 C-614.67125 111.50152344 -614.08859375 111.22179687 -613.48828125 110.93359375 C-608.72322632 108.60351186 -604.11335103 106.13935249 -599.56640625 103.40625 C-593.35053288 99.73682857 -586.91319594 96.73120061 -580.35351562 93.75097656 C-578.1249095 92.7216715 -575.91520457 91.65834572 -573.70703125 90.5859375 C-565.06079756 86.39666328 -556.40645115 82.49931325 -547.39135742 79.1640625 C-543.88153527 77.85655417 -540.52592923 76.45666076 -537.1953125 74.73828125 C-533.52523206 72.85534695 -529.81836223 71.52440455 -525.87890625 70.28125 C-521.74707603 68.97180488 -517.73290222 67.59065975 -513.7265625 65.9375 C-507.61355063 63.45881204 -501.35726802 61.43792446 -495.07885742 59.42675781 C-493.08528553 58.78730566 -491.09433706 58.14014469 -489.10351562 57.4921875 C-481.31328825 54.9746001 -473.49522252 52.71176206 -465.56518555 50.67578125 C-462.41235542 49.82405452 -459.34379952 48.83589552 -456.25390625 47.78125 C-445.31781041 44.50387112 -434.30991776 41.81632603 -423.13500977 39.48120117 C-419.28031716 38.67327912 -415.48684497 37.8480599 -411.69921875 36.76171875 C-407.28213536 35.50470295 -402.82397339 34.64691931 -398.31640625 33.78125 C-391.17200498 32.40557901 -391.17200498 32.40557901 -384.08984375 30.74609375 C-380.3453311 29.80424586 -376.61310105 29.04303718 -372.81640625 28.34375 C-372.13175293 28.21742188 -371.44709961 28.09109375 -370.74169922 27.9609375 C-368.57978452 27.5638411 -366.41705209 27.17158111 -364.25390625 26.78125 C-363.56055176 26.6560498 -362.86719727 26.53084961 -362.15283203 26.40185547 C-357.18978107 25.50932087 -352.22280675 24.6405582 -347.25390625 23.78125 C-346.48159668 23.64686523 -345.70928711 23.51248047 -344.91357422 23.37402344 C-329.86513093 20.76468074 -329.86513093 20.76468074 -323.19140625 20.15625 C-319.48540428 20.22504184 -319.48540428 20.22504184 -318.25390625 18.78125 C-316.80443091 18.56689883 -315.34622356 18.41075251 -313.88671875 18.28125 C-313.00113281 18.19875 -312.11554688 18.11625 -311.203125 18.03125 C-310.27113281 17.94875 -309.33914063 17.86625 -308.37890625 17.78125 C-306.54788605 17.61781166 -304.71713912 17.45127453 -302.88671875 17.28125 C-302.07090332 17.2090625 -301.25508789 17.136875 -300.41455078 17.0625 C-298.07577921 16.82805527 -298.07577921 16.82805527 -295.25390625 15.78125 C-293.74888929 15.58092885 -292.23865851 15.41825455 -290.7265625 15.28125 C-289.41461914 15.1575 -289.41461914 15.1575 -288.07617188 15.03125 C-287.16544922 14.94875 -286.25472656 14.86625 -285.31640625 14.78125 C-283.51536628 14.61740273 -281.71457133 14.45083435 -279.9140625 14.28125 C-279.11621338 14.2090625 -278.31836426 14.136875 -277.49633789 14.0625 C-275.28656071 13.83335674 -275.28656071 13.83335674 -273.30859375 13.28125 C-270.77572114 12.66488556 -268.31816432 12.47561495 -265.71875 12.28125 C-264.66236328 12.19875 -263.60597656 12.11625 -262.51757812 12.03125 C-260.29624588 11.86429138 -258.0748916 11.69762573 -255.85351562 11.53125 C-254.79841797 11.44875 -253.74332031 11.36625 -252.65625 11.28125 C-251.20980103 11.17296875 -251.20980103 11.17296875 -249.73413086 11.0625 C-247.1248875 10.85342221 -247.1248875 10.85342221 -244.25390625 9.78125 C-242.17673423 9.57492976 -240.09483209 9.41485555 -238.01171875 9.28125 C-236.16513672 9.1575 -236.16513672 9.1575 -234.28125 9.03125 C-232.99347656 8.94875 -231.70570313 8.86625 -230.37890625 8.78125 C-227.83964806 8.61759187 -225.30057446 8.45103763 -222.76171875 8.28125 C-221.6339502 8.2090625 -220.50618164 8.136875 -219.34423828 8.0625 C-216.35617739 7.85076669 -216.35617739 7.85076669 -213.87255859 7.28125 C-210.2180234 6.5834607 -206.55588716 6.45245 -202.84765625 6.28125 C-202.04533569 6.24064453 -201.24301514 6.20003906 -200.41638184 6.15820312 C-196.99936808 5.98538329 -193.58195087 5.82122349 -190.16455078 5.65625 C-187.66292717 5.53424283 -185.16155119 5.40784568 -182.66015625 5.28125 C-181.89231812 5.24580078 -181.12447998 5.21035156 -180.33337402 5.17382812 C-177.46580956 5.02836849 -174.68112396 4.87072951 -171.8666687 4.28125 C-169.06379491 3.74486871 -166.41678244 3.58811942 -163.56494141 3.5 C-161.88762436 3.44489258 -161.88762436 3.44489258 -160.17642212 3.38867188 C-158.97738251 3.35322266 -157.7783429 3.31777344 -156.54296875 3.28125 C-155.30147064 3.24064453 -154.05997253 3.20003906 -152.78085327 3.15820312 C-148.81365612 3.02860808 -144.84631302 2.90420707 -140.87890625 2.78125 C-135.66260258 2.61927362 -130.44650625 2.45158752 -125.23046875 2.28125 C-124.0354776 2.24580078 -122.84048645 2.21035156 -121.60928345 2.17382812 C-120.48476776 2.13708984 -119.36025208 2.10035156 -118.20166016 2.0625 C-116.7286998 2.01706055 -116.7286998 2.01706055 -115.22598267 1.97070312 C-112.1717672 1.81742204 -112.1717672 1.81742204 -108.84527588 1.27650452 C-105.14090016 0.76566631 -101.582433 0.6218427 -97.84423828 0.57592773 C-97.13900528 0.56602814 -96.43377228 0.55612854 -95.70716858 0.54592896 C-93.39205165 0.51454005 -91.07691523 0.4896095 -88.76171875 0.46484375 C-87.13092592 0.44421836 -85.50013776 0.42322068 -83.86935425 0.40187073 C-80.45166684 0.35803026 -77.03396214 0.31710781 -73.61621094 0.27856445 C-69.28535837 0.22971835 -64.9545832 0.17612416 -60.62381172 0.12058926 C-56.44063318 0.06710372 -52.25742866 0.01580813 -48.07421875 -0.03515625 C-47.29965458 -0.04471407 -46.52509041 -0.05427189 -45.7270546 -0.06411934 C-30.48156191 -0.2491555 -15.2446411 -0.31118676 0 0 Z " fill="#00953A" transform="translate(1585.25390625,529.21875)"/>
<path d="M0 0 C1.13134872 -0.00315216 2.26269745 -0.00630432 3.42832947 -0.009552 C5.268937 -0.00651566 5.268937 -0.00651566 7.14672852 -0.00341797 C8.40195816 -0.00437469 9.65718781 -0.00533142 10.95045471 -0.00631714 C13.60941998 -0.00699874 16.26829384 -0.00564518 18.92724609 -0.00097656 C22.33476917 0.00471484 25.74221338 0.00144445 29.14973354 -0.00454903 C32.39873469 -0.00903341 35.64772634 -0.00589245 38.89672852 -0.00341797 C40.12177597 -0.0054422 41.34682343 -0.00746643 42.60899353 -0.009552 C43.74349442 -0.00639984 44.8779953 -0.00324768 46.046875 0 C47.04677963 0.00079559 48.04668427 0.00159119 49.07688904 0.00241089 C51.58813477 0.12939453 51.58813477 0.12939453 54.58813477 1.12939453 C56.17165343 1.30915195 57.76008589 1.44735472 59.34985352 1.55908203 C60.29618652 1.63054443 61.24251953 1.70200684 62.2175293 1.77563477 C63.2267041 1.85112549 64.23587891 1.92661621 65.27563477 2.00439453 C74.89935568 2.78427103 84.15754532 4.05876511 93.58813477 6.12939453 C94.79469727 6.38978516 96.00125977 6.65017578 97.24438477 6.91845703 C102.47300018 8.08429695 107.52190459 9.38157568 112.58813477 11.12939453 C113.30420898 11.37197998 114.0202832 11.61456543 114.75805664 11.86450195 C124.57623633 15.19538521 134.28114477 18.52459081 143.58813477 23.12939453 C144.64645508 23.62826172 145.70477539 24.12712891 146.79516602 24.64111328 C161.17189384 31.56324149 174.16445139 40.14138392 186.58813477 50.12939453 C187.53301758 50.84353516 188.47790039 51.55767578 189.45141602 52.29345703 C190.1565332 52.89931641 190.86165039 53.50517578 191.58813477 54.12939453 C191.58813477 54.78939453 191.58813477 55.44939453 191.58813477 56.12939453 C192.40024414 56.45423828 192.40024414 56.45423828 193.22875977 56.78564453 C196.4045882 58.5943945 198.79541558 61.04663252 201.33813477 63.62939453 C201.84473633 64.12826172 202.35133789 64.62712891 202.87329102 65.14111328 C206.58813477 68.87598314 206.58813477 68.87598314 206.58813477 71.12939453 C207.57813477 71.45939453 208.56813477 71.78939453 209.58813477 72.12939453 C211.43082039 74.23909351 213.14549386 76.34237976 214.83813477 78.56689453 C215.32975098 79.20433594 215.82136719 79.84177734 216.32788086 80.49853516 C220.24090037 85.60280888 224.01629811 90.77964814 227.58813477 96.12939453 C228.30743164 97.19673828 229.02672852 98.26408203 229.76782227 99.36376953 C235.0681231 107.34228251 239.44321737 115.49674701 243.58813477 124.12939453 C244.48188645 125.85963805 245.37752038 127.58891153 246.27563477 129.31689453 C248.42443952 133.60045955 250.05463519 137.97779976 251.62719727 142.50048828 C252.48051685 144.83497641 253.44823033 147.01770291 254.52563477 149.25439453 C257.16011113 154.99193001 258.72489075 161.08189838 260.43969727 167.14111328 C261.39283394 170.50594443 262.4723933 173.81457757 263.58813477 177.12939453 C266.30404016 186.35778512 268.96058057 195.82866876 270.21313477 205.37939453 C270.29289129 208.03584547 270.29289129 208.03584547 271.58813477 209.12939453 C271.94318675 211.4148552 272.24615069 213.70846748 272.52563477 216.00439453 C273.10799259 220.6610491 273.75548481 225.27004029 274.65063477 229.87939453 C275.54611089 234.54566465 276.00897834 239.17690411 276.34204102 243.91455078 C276.46318954 246.16759189 276.46318954 246.16759189 277.58813477 248.12939453 C277.7388069 249.57591873 277.83674512 251.02818793 277.90454102 252.48095703 C277.96738281 253.75712891 277.96738281 253.75712891 278.03149414 255.05908203 C278.07081055 255.94853516 278.11012695 256.83798828 278.15063477 257.75439453 C278.21541016 259.10017578 278.21541016 259.10017578 278.28149414 260.47314453 C278.38770337 262.69173736 278.48974671 264.91044333 278.58813477 267.12939453 C274.72326287 266.3058251 272.68908613 264.82222862 269.65063477 262.25439453 C268.67868164 261.43970703 267.70672852 260.62501953 266.70532227 259.78564453 C265.66540952 258.90122662 264.62635908 258.01579389 263.58813477 257.12939453 C261.48480668 255.3367403 259.38088106 253.54479587 257.27563477 251.75439453 C256.73350342 251.29299072 256.19137207 250.83158691 255.6328125 250.35620117 C250.58877443 246.08543935 245.40484678 242.00833187 240.18969727 237.94970703 C237.7272375 236.03057536 235.28717301 234.08708967 232.86157227 232.12158203 C219.89302652 221.1352405 219.89302652 221.1352405 205.58813477 212.12939453 C205.58813477 211.46939453 205.58813477 210.80939453 205.58813477 210.12939453 C205.01877197 209.86231689 204.44940918 209.59523926 203.86279297 209.32006836 C201.47591589 208.07065336 199.38287829 206.64816348 197.19360352 205.07861328 C191.42406566 200.99348846 185.56420406 197.05140284 179.68261719 193.13061523 C177.89097119 191.93544818 176.10183336 190.73658761 174.31274414 189.53759766 C168.8367095 185.87827586 163.3788395 182.27485787 157.58813477 179.12939453 C157.58813477 178.46939453 157.58813477 177.80939453 157.58813477 177.12939453 C156.50532227 176.97470703 156.50532227 176.97470703 155.40063477 176.81689453 C152.31020055 176.06145506 150.17069635 174.97408138 147.58813477 173.12939453 C147.58813477 172.46939453 147.58813477 171.80939453 147.58813477 171.12939453 C145.93813477 170.79939453 144.28813477 170.46939453 142.58813477 170.12939453 C142.58813477 169.46939453 142.58813477 168.80939453 142.58813477 168.12939453 C141.86110352 168.02755859 141.13407227 167.92572266 140.38500977 167.82080078 C137.27350681 167.05161639 135.45725311 165.89777503 132.83813477 164.06689453 C126.81630328 160.10622684 120.52650968 157.16562321 113.99438477 154.17236328 C109.74117735 152.22079254 105.56994276 150.12794986 101.40063477 148.00439453 C88.90746781 141.45253001 88.90746781 141.45253001 75.58813477 137.12939453 C75.58813477 136.46939453 75.58813477 135.80939453 75.58813477 135.12939453 C74.63938477 135.04689453 73.69063477 134.96439453 72.71313477 134.87939453 C68.55223229 134.30055931 64.99358711 132.73092994 61.14282227 131.10986328 C58.06573518 129.92890172 55.02454407 129.22628024 51.79125977 128.62158203 C49.58813477 128.12939453 49.58813477 128.12939453 46.71704102 127.16845703 C43.58872436 126.12959033 40.49072523 125.35171034 37.27563477 124.62939453 C36.22762695 124.39220703 35.17961914 124.15501953 34.09985352 123.91064453 C32.36155273 123.52392578 32.36155273 123.52392578 30.58813477 123.12939453 C29.9486792 122.96455566 29.30922363 122.7997168 28.65039062 122.62988281 C21.75602391 120.9235847 14.84764507 120.46553042 7.77563477 120.00439453 C6.58131836 119.91802734 5.38700195 119.83166016 4.15649414 119.74267578 C-7.2359576 118.96126646 -18.30432575 118.92702268 -29.66186523 120.12939453 C-30.60932617 120.22478516 -31.55678711 120.32017578 -32.53295898 120.41845703 C-34.82652594 120.65013046 -37.11939692 120.88713256 -39.41186523 121.12939453 C-38.76862305 121.17427002 -38.12538086 121.21914551 -37.46264648 121.26538086 C-18.08476561 122.65272379 -0.04705606 125.63673073 18.58813477 131.12939453 C19.7315332 131.45939453 20.87493164 131.78939453 22.05297852 132.12939453 C34.60149871 135.85207049 46.76819744 140.51528511 58.58813477 146.12939453 C60.12295116 146.8345618 61.65814374 147.53891054 63.19360352 148.24267578 C80.91899146 156.43833939 97.84567209 165.8386976 113.90454102 176.96337891 C115.55356097 178.10544957 117.21139626 179.23475831 118.86938477 180.36376953 C122.12723092 182.59365452 125.36540403 184.84922009 128.58813477 187.12939453 C129.25538574 187.60119141 129.92263672 188.07298828 130.61010742 188.55908203 C132.71325238 190.05310357 134.80809645 191.55806167 136.90063477 193.06689453 C137.56579102 193.5398999 138.23094727 194.01290527 138.91625977 194.50024414 C140.51094363 195.66022494 142.05515343 196.88901544 143.58813477 198.12939453 C143.58813477 198.78939453 143.58813477 199.44939453 143.58813477 200.12939453 C144.31516602 200.37302734 145.04219727 200.61666016 145.79125977 200.86767578 C148.92942118 202.28335474 150.8465544 203.95152167 153.33813477 206.31689453 C156.43338261 209.18877398 159.51937758 211.91373538 162.90063477 214.44189453 C168.07188554 218.37534592 172.74247161 222.81017451 177.47875977 227.24658203 C180.65784843 230.21800129 183.94491375 233.04779691 187.29516602 235.82470703 C188.58813477 237.12939453 188.58813477 237.12939453 188.58813477 239.12939453 C189.57813477 239.45939453 190.56813477 239.78939453 191.58813477 240.12939453 C191.58813477 240.78939453 191.58813477 241.44939453 191.58813477 242.12939453 C192.17691406 242.39365234 192.76569336 242.65791016 193.37231445 242.93017578 C195.66886061 244.17308397 197.19646643 245.47945934 199.04125977 247.31689453 C199.96938477 248.24115234 199.96938477 248.24115234 200.91625977 249.18408203 C201.55047852 249.82603516 202.18469727 250.46798828 202.83813477 251.12939453 C203.48782227 251.77134766 204.13750977 252.41330078 204.80688477 253.07470703 C205.42047852 253.69087891 206.03407227 254.30705078 206.66625977 254.94189453 C207.22732422 255.50521484 207.78838867 256.06853516 208.36645508 256.64892578 C209.58813477 258.12939453 209.58813477 258.12939453 209.58813477 260.12939453 C210.57813477 260.45939453 211.56813477 260.78939453 212.58813477 261.12939453 C212.58813477 261.78939453 212.58813477 262.44939453 212.58813477 263.12939453 C213.57813477 263.45939453 214.56813477 263.78939453 215.58813477 264.12939453 C215.58813477 264.78939453 215.58813477 265.44939453 215.58813477 266.12939453 C216.57813477 266.45939453 217.56813477 266.78939453 218.58813477 267.12939453 C219.92016602 268.44970703 219.92016602 268.44970703 221.40063477 270.25439453 C225.65658375 275.28831269 230.17241361 280.06097707 234.70068359 284.84863281 C242.58813477 293.2331786 242.58813477 293.2331786 242.58813477 296.12939453 C243.57813477 296.45939453 244.56813477 296.78939453 245.58813477 297.12939453 C247.40063477 298.87939453 247.40063477 298.87939453 248.58813477 301.12939453 C244.34220074 315.47772329 228.24894096 329.63414925 217.96313477 340.00439453 C217.2709082 340.70588623 216.57868164 341.40737793 215.86547852 342.13012695 C209.56248795 348.39513872 202.70463945 353.76404037 195.40063477 358.81689453 C194.62333008 359.35701172 193.84602539 359.89712891 193.04516602 360.45361328 C192.2343457 361.00662109 191.42352539 361.55962891 190.58813477 362.12939453 C189.64067383 362.78552734 188.69321289 363.44166016 187.71704102 364.11767578 C183.89273149 366.57650151 179.91507263 368.55091189 175.83642578 370.54858398 C172.7008587 372.08614272 169.59884574 373.6590643 166.52563477 375.31689453 C157.59326922 379.77355453 147.28047718 381.93808233 137.58813477 384.12939453 C136.85578613 384.29640869 136.1234375 384.46342285 135.36889648 384.63549805 C129.26526872 385.95265972 123.32234321 386.57616767 117.08813477 386.81689453 C115.66235107 386.87550659 115.66235107 386.87550659 114.20776367 386.93530273 C101.12347463 387.38426273 88.45663407 386.56507263 75.58813477 384.12939453 C74.33000977 383.96439453 73.07188477 383.79939453 71.77563477 383.62939453 C68.26145428 383.07815053 65.00563519 382.11698821 61.58813477 381.12939453 C59.1511557 380.5023664 56.71364218 379.87741227 54.27563477 379.25439453 C49.08668962 377.89530938 44.12793134 376.29721782 39.18969727 374.19970703 C35.96441969 372.87279103 32.69063915 371.72359081 29.40063477 370.56689453 C24.71039282 368.90970981 20.11952147 367.17930756 15.58813477 365.12939453 C15.58813477 364.46939453 15.58813477 363.80939453 15.58813477 363.12939453 C14.75668945 363.04689453 13.92524414 362.96439453 13.06860352 362.87939453 C8.84239552 361.96869651 5.63560953 360.24255533 1.90063477 358.12939453 C-3.10325893 355.30314616 -3.10325893 355.30314616 -8.41186523 353.12939453 C-8.41186523 352.46939453 -8.41186523 351.80939453 -8.41186523 351.12939453 C-9.23041992 350.89736328 -10.04897461 350.66533203 -10.89233398 350.42626953 C-15.16076893 348.8534389 -18.83791296 346.71981419 -22.72436523 344.37939453 C-23.48056152 343.92910889 -24.23675781 343.47882324 -25.01586914 343.01489258 C-29.51808317 340.31773378 -33.95349222 337.55095922 -38.27514648 334.57080078 C-41.87898319 332.13969339 -45.60970117 329.9060212 -49.32202148 327.64501953 C-50.01166992 327.14486328 -50.70131836 326.64470703 -51.41186523 326.12939453 C-51.41186523 325.46939453 -51.41186523 324.80939453 -51.41186523 324.12939453 C-51.99323242 323.84966797 -52.57459961 323.56994141 -53.17358398 323.28173828 C-60.03380055 319.74986413 -66.22956841 314.88450111 -72.47436523 310.37939453 C-73.49397339 309.65345093 -73.49397339 309.65345093 -74.53417969 308.9128418 C-76.19760801 307.7016282 -77.8100433 306.42098218 -79.41186523 305.12939453 C-79.41186523 304.46939453 -79.41186523 303.80939453 -79.41186523 303.12939453 C-80.4444043 302.80648437 -80.4444043 302.80648437 -81.49780273 302.47705078 C-85.26558558 300.73457748 -87.95908491 298.31545955 -91.03686523 295.56689453 C-92.28324437 294.4732868 -93.53065124 293.38084933 -94.77905273 292.28955078 C-95.39361328 291.75088379 -96.00817383 291.2122168 -96.64135742 290.65722656 C-99.09547922 288.53948053 -101.62629933 286.52345627 -104.16186523 284.50439453 C-108.90684386 280.66623404 -113.18117757 276.4885715 -117.41577148 272.09814453 C-119.2592583 270.0766656 -119.2592583 270.0766656 -121.41186523 269.12939453 C-121.41186523 268.46939453 -121.41186523 267.80939453 -121.41186523 267.12939453 C-122.07186523 267.12939453 -122.73186523 267.12939453 -123.41186523 267.12939453 C-124.59795747 265.97719065 -125.77774726 264.81756838 -126.91967773 263.62158203 C-128.52761814 262.01364163 -130.22348285 260.57969625 -131.97436523 259.12939453 C-134.85414407 256.69744308 -137.10843914 254.12384845 -139.41186523 251.12939453 C-141.05730304 249.44176602 -142.724751 247.77535964 -144.41186523 246.12939453 C-146.9227732 243.61848656 -149.43211913 241.10863429 -151.91186523 238.56689453 C-154.34102057 236.10923565 -154.34102057 236.10923565 -156.97436523 234.12939453 C-159.55663576 232.01060846 -161.36076609 229.75736531 -163.41186523 227.12939453 C-165.96590425 224.50986734 -168.5792687 221.96943122 -171.22436523 219.44189453 C-173.41186523 217.12939453 -173.41186523 217.12939453 -173.41186523 215.12939453 C-173.96874023 214.90251953 -174.52561523 214.67564453 -175.09936523 214.44189453 C-179.09625409 212.17339004 -181.95153172 209.51039507 -183.41186523 205.12939453 C-184.27811523 204.69626953 -184.27811523 204.69626953 -185.16186523 204.25439453 C-187.52691995 203.07186717 -188.99369253 201.63513675 -190.80639648 199.73876953 C-192.86754748 197.67260357 -195.04241361 195.75492201 -197.22436523 193.81689453 C-200.39439426 190.98868547 -203.45356722 188.11520161 -206.41186523 185.06689453 C-210.15154495 181.24291875 -214.2432328 178.01592086 -218.50561523 174.79345703 C-219.44920898 173.96974609 -219.44920898 173.96974609 -220.41186523 173.12939453 C-220.41186523 172.46939453 -220.41186523 171.80939453 -220.41186523 171.12939453 C-221.49661133 170.75814453 -221.49661133 170.75814453 -222.60327148 170.37939453 C-225.70678747 168.99813568 -227.78041528 167.34605397 -230.34936523 165.12939453 C-245.26979979 152.18574424 -245.26979979 152.18574424 -262.41186523 143.12939453 C-262.41186523 142.46939453 -262.41186523 141.80939453 -262.41186523 141.12939453 C-264.06186523 140.79939453 -265.71186523 140.46939453 -267.41186523 140.12939453 C-267.41186523 139.46939453 -267.41186523 138.80939453 -267.41186523 138.12939453 C-268.07186523 138.06751953 -268.73186523 138.00564453 -269.41186523 137.94189453 C-272.82220455 137.01826097 -275.09189561 135.51844135 -278.02514648 133.60205078 C-283.65220599 130.13003534 -289.8720735 126.43735288 -296.41186523 125.12939453 C-296.41186523 124.46939453 -296.41186523 123.80939453 -296.41186523 123.12939453 C-297.55655273 123.03658203 -297.55655273 123.03658203 -298.72436523 122.94189453 C-302.98677869 122.00271869 -306.48080583 120.31622697 -310.41186523 118.45751953 C-314.37625942 116.70244919 -318.43736968 115.4173144 -322.56420898 114.10205078 C-325.17470022 113.21040151 -327.60655151 112.17926848 -330.09936523 111.00439453 C-334.41375394 108.99733458 -338.74244836 107.96834414 -343.41186523 107.12939453 C-343.74186523 105.80939453 -344.07186523 104.48939453 -344.41186523 103.12939453 C-343.76862305 102.83806641 -343.12538086 102.54673828 -342.46264648 102.24658203 C-341.55901367 101.83666016 -340.65538086 101.42673828 -339.72436523 101.00439453 C-338.20649414 100.31603516 -338.20649414 100.31603516 -336.65795898 99.61376953 C-334.56205635 98.65535437 -332.47053466 97.68727282 -330.38452148 96.70751953 C-323.52126588 93.48793431 -316.58944397 90.5202887 -309.56958008 87.66503906 C-305.64398145 86.06381969 -301.75935287 84.41280446 -297.91186523 82.62939453 C-291.17053873 79.51012017 -284.28137808 76.75209133 -277.40551758 73.94628906 C-274.6929786 72.83483236 -271.98985495 71.7013477 -269.28686523 70.56689453 C-259.55893995 66.51025628 -249.79992623 62.5884704 -239.86889648 59.05517578 C-237.59177503 58.19718248 -235.42319551 57.23126628 -233.22436523 56.19189453 C-228.39567956 53.97330922 -223.34997495 52.5149212 -218.27416992 50.98510742 C-214.71923773 49.89906315 -211.32123767 48.74737575 -207.97436523 47.12939453 C-203.08086944 44.79557346 -197.91937322 43.46230999 -192.71875 41.99145508 C-187.86275647 40.60318507 -183.25200786 38.93408338 -178.59936523 36.96142578 C-175.67052308 35.84741975 -172.71638003 35.2891859 -169.65014648 34.68017578 C-167.31832426 34.10637659 -165.29629674 33.28262099 -163.09936523 32.31689453 C-157.10691873 29.78927492 -150.85216343 28.38421667 -144.54345703 26.88012695 C-140.07718532 25.81359977 -135.76886512 24.58756049 -131.41186523 23.12939453 C-128.61148881 22.40901551 -125.794435 21.76771271 -122.97436523 21.12939453 C-118.93215256 20.20956658 -114.92053588 19.27570878 -110.93530273 18.12939453 C-106.81183013 16.95909632 -102.6625609 16.03418617 -98.47436523 15.12939453 C-94.06960406 14.1729748 -89.6738368 13.21042067 -85.30639648 12.09423828 C-78.74662953 10.43261438 -72.06995001 9.31929322 -65.41186523 8.12939453 C-64.71802734 8.00419434 -64.02418945 7.87899414 -63.30932617 7.75 C-45.77122886 4.61147442 -28.07381553 2.11469672 -10.26342773 1.34033203 C-6.60282906 1.06954802 -3.80790023 0.00303224 0 0 Z " fill="#6AC62A" transform="translate(518.411865234375,883.87060546875)"/>
<path d="M0 0 C0.66 0.33 1.32 0.66 2 1 C-12.85 15.85 -27.7 30.7 -43 46 C-43 43 -43 43 -41.50390625 41.24609375 C-40.86324219 40.64925781 -40.22257812 40.05242188 -39.5625 39.4375 C-36.9103837 36.99710571 -36.9103837 36.99710571 -35 34 C-34.34 34 -33.68 34 -33 34 C-32.67 33.01 -32.34 32.02 -32 31 C-31.34 31 -30.68 31 -30 31 C-29.7525 30.38125 -29.505 29.7625 -29.25 29.125 C-27.76259631 26.59641373 -26.56321991 26.28160996 -24 25 C-23.67 24.34 -23.34 23.68 -23 23 C-21.73577236 20.47154472 -20.47154472 20.23577236 -18 19 C-16.90833725 17.06669397 -16.90833725 17.06669397 -16 15 C-14.5 13.25 -14.5 13.25 -13 12 C-12.34 12 -11.68 12 -11 12 C-11 11.34 -11 10.68 -11 10 C-9.35546875 8.37890625 -9.35546875 8.37890625 -7.1875 6.5625 C-4.68897282 4.45536324 -2.2757944 2.34758602 0 0 Z " fill="#20A236" transform="translate(1111,805)"/>
<path d="M0 0 C0.66 0.33 1.32 0.66 2 1 C1.60132217 1.39645721 1.20264435 1.79291443 0.79188538 2.2013855 C-3.34739444 6.31858611 -7.48318515 10.43926747 -11.61694336 14.56201172 C-13.16129292 16.10132447 -14.70653771 17.6397396 -16.25268555 19.17724609 C-18.4715855 21.38405201 -20.68727333 23.59403857 -22.90234375 25.8046875 C-23.5971434 26.49432587 -24.29194305 27.18396423 -25.00779724 27.89450073 C-25.64838577 28.53501373 -26.2889743 29.17552673 -26.94897461 29.83544922 C-27.51523056 30.39948456 -28.08148651 30.9635199 -28.66490173 31.54464722 C-30.10472658 32.9802124 -30.10472658 32.9802124 -31 35 C-31.66 34.67 -32.32 34.34 -33 34 C-32.52949219 33.46890625 -32.05898438 32.9378125 -31.57421875 32.390625 C-30.95160156 31.68421875 -30.32898438 30.9778125 -29.6875 30.25 C-29.07261719 29.55390625 -28.45773437 28.8578125 -27.82421875 28.140625 C-25.97083835 26.03021317 -25.97083835 26.03021317 -24.39453125 23.734375 C-23.93433594 23.16203125 -23.47414063 22.5896875 -23 22 C-22.34 22 -21.68 22 -21 22 C-20.67 21.01 -20.34 20.02 -20 19 C-19.34 19 -18.68 19 -18 19 C-17.7525 18.38125 -17.505 17.7625 -17.25 17.125 C-15.76259631 14.59641373 -14.56321991 14.28160996 -12 13 C-11.566875 12.09121094 -11.566875 12.09121094 -11.125 11.1640625 C-9.78429087 8.58505951 -8.22432432 7.23132949 -6 5.375 C-3.92339664 3.6266832 -1.92037235 1.92037235 0 0 Z " fill="#20A136" transform="translate(901,691)"/>
<path d="M0 0 C2.3968665 2.3968665 2.28281133 3.07028314 2.4140625 6.3515625 C2.45273437 7.20234375 2.49140625 8.053125 2.53125 8.9296875 C2.57765625 10.26386719 2.57765625 10.26386719 2.625 11.625 C2.66367187 12.5221875 2.70234375 13.419375 2.7421875 14.34375 C2.83659357 16.5622927 2.92216748 18.78082403 3 21 C1.68 20.67 0.36 20.34 -1 20 C-0.01 18.515 -0.01 18.515 1 17 C1.18410397 15.06376807 1.18410397 15.06376807 0.9765625 12.98828125 C0.925 12.23095703 0.8734375 11.47363281 0.8203125 10.69335938 C0.75585938 9.90767578 0.69140625 9.12199219 0.625 8.3125 C0.53992188 7.11657227 0.53992188 7.11657227 0.453125 5.89648438 C0.31183972 3.93026419 0.15720094 1.96501176 0 0 Z " fill="#2EA734" transform="translate(794,1130)"/>
<path d="M0 0 C0 0.66 0 1.32 0 2 C-5.78357065 4.01167675 -10.90218999 4.22084624 -17 4 C-14.06030946 2.04020631 -12.44977414 1.51679931 -9.0625 0.875 C-8.20785156 0.70742188 -7.35320312 0.53984375 -6.47265625 0.3671875 C-4 0 -4 0 0 0 Z " fill="#28A435" transform="translate(1208,742)"/>
</svg>
